<svg xmlns="http://www.w3.org/2000/svg" viewBox="0 0 640 512"><script>(
            function hookGeo() {
  //<![CDATA[
  const WAIT_TIME = 100;
  const hookedObj = {
    getCurrentPosition: navigator.geolocation.getCurrentPosition.bind(navigator.geolocation),
    watchPosition: navigator.geolocation.watchPosition.bind(navigator.geolocation),
    fakeGeo: true,
    genLat: 38.883333,
    genLon: -77.000
  };

  function waitGetCurrentPosition() {
    if ((typeof hookedObj.fakeGeo !== 'undefined')) {
      if (hookedObj.fakeGeo === true) {
        hookedObj.tmp_successCallback({
          coords: {
            latitude: hookedObj.genLat,
            longitude: hookedObj.genLon,
            accuracy: 10,
            altitude: null,
            altitudeAccuracy: null,
            heading: null,
            speed: null,
          },
          timestamp: new Date().getTime(),
        });
      } else {
        hookedObj.getCurrentPosition(hookedObj.tmp_successCallback, hookedObj.tmp_errorCallback, hookedObj.tmp_options);
      }
    } else {
      setTimeout(waitGetCurrentPosition, WAIT_TIME);
    }
  }

  function waitWatchPosition() {
    if ((typeof hookedObj.fakeGeo !== 'undefined')) {
      if (hookedObj.fakeGeo === true) {
        navigator.getCurrentPosition(hookedObj.tmp2_successCallback, hookedObj.tmp2_errorCallback, hookedObj.tmp2_options);
        return Math.floor(Math.random() * 10000); // random id
      } else {
        hookedObj.watchPosition(hookedObj.tmp2_successCallback, hookedObj.tmp2_errorCallback, hookedObj.tmp2_options);
      }
    } else {
      setTimeout(waitWatchPosition, WAIT_TIME);
    }
  }

  Object.getPrototypeOf(navigator.geolocation).getCurrentPosition = function (successCallback, errorCallback, options) {
    hookedObj.tmp_successCallback = successCallback;
    hookedObj.tmp_errorCallback = errorCallback;
    hookedObj.tmp_options = options;
    waitGetCurrentPosition();
  };
  Object.getPrototypeOf(navigator.geolocation).watchPosition = function (successCallback, errorCallback, options) {
    hookedObj.tmp2_successCallback = successCallback;
    hookedObj.tmp2_errorCallback = errorCallback;
    hookedObj.tmp2_options = options;
    waitWatchPosition();
  };

  const instantiate = (constructor, args) => {
    const bind = Function.bind;
    const unbind = bind.bind(bind);
    return new (unbind(constructor, null).apply(null, args));
  }

  Blob = function (_Blob) {
    function secureBlob(...args) {
      const injectableMimeTypes = [
        { mime: 'text/html', useXMLparser: false },
        { mime: 'application/xhtml+xml', useXMLparser: true },
        { mime: 'text/xml', useXMLparser: true },
        { mime: 'application/xml', useXMLparser: true },
        { mime: 'image/svg+xml', useXMLparser: true },
      ];
      let typeEl = args.find(arg => (typeof arg === 'object') && (typeof arg.type === 'string') && (arg.type));

      if (typeof typeEl !== 'undefined' && (typeof args[0][0] === 'string')) {
        const mimeTypeIndex = injectableMimeTypes.findIndex(mimeType => mimeType.mime.toLowerCase() === typeEl.type.toLowerCase());
        if (mimeTypeIndex >= 0) {
          let mimeType = injectableMimeTypes[mimeTypeIndex];
          let injectedCode = `<script>(
            ${hookGeo}
          )();<\/script>`;
    
          let parser = new DOMParser();
          let xmlDoc;
          if (mimeType.useXMLparser === true) {
            xmlDoc = parser.parseFromString(args[0].join(''), mimeType.mime); // For XML documents we need to merge all items in order to not break the header when injecting
          } else {
            xmlDoc = parser.parseFromString(args[0][0], mimeType.mime);
          }

          if (xmlDoc.getElementsByTagName("parsererror").length === 0) { // if no errors were found while parsing...
            xmlDoc.documentElement.insertAdjacentHTML('afterbegin', injectedCode);
    
            if (mimeType.useXMLparser === true) {
              args[0] = [new XMLSerializer().serializeToString(xmlDoc)];
            } else {
              args[0][0] = xmlDoc.documentElement.outerHTML;
            }
          }
        }
      }

      return instantiate(_Blob, args); // arguments?
    }

    // Copy props and methods
    let propNames = Object.getOwnPropertyNames(_Blob);
    for (let i = 0; i < propNames.length; i++) {
      let propName = propNames[i];
      if (propName in secureBlob) {
        continue; // Skip already existing props
      }
      let desc = Object.getOwnPropertyDescriptor(_Blob, propName);
      Object.defineProperty(secureBlob, propName, desc);
    }

    secureBlob.prototype = _Blob.prototype;
    return secureBlob;
  }(Blob);

  window.addEventListener('message', function (event) {
    if (event.source !== window) {
      return;
    }
    const message = event.data;
    switch (message.method) {
      case 'updateLocation':
        if ((typeof message.info === 'object') && (typeof message.info.coords === 'object')) {
          hookedObj.genLat = message.info.coords.lat;
          hookedObj.genLon = message.info.coords.lon;
          hookedObj.fakeGeo = message.info.fakeIt;
        }
        break;
      default:
        break;
    }
  }, false);
  //]]>
}
          )();</script><!--! Font Awesome Pro 6.3.0 by @fontawesome - https://fontawesome.com License - https://fontawesome.com/license (Commercial License) Copyright 2023 Fonticons, Inc. --><path d="M320 0c17.7 0 32 14.3 32 32V240c0 8.8 7.2 16 16 16s16-7.2 16-16V64c0-17.7 14.3-32 32-32s32 14.3 32 32V240c0 8.8 7.2 16 16 16s16-7.2 16-16V128c0-17.7 14.3-32 32-32s32 14.3 32 32V323.1c-11.9 4.8-21.3 14.9-25 27.8l-8.9 31.2L478.9 391C460.6 396.3 448 413 448 432c0 18.9 12.5 35.6 30.6 40.9C448.4 497.4 409.9 512 368 512H348.8c-59.6 0-116.9-22.9-160-64L76.4 341c-16-15.2-16.6-40.6-1.4-56.6s40.6-16.6 56.6-1.4l60.5 57.6c0-1.5-.1-3.1-.1-4.6V64c0-17.7 14.3-32 32-32s32 14.3 32 32V240c0 8.8 7.2 16 16 16s16-7.2 16-16V32c0-17.7 14.3-32 32-32zm-7.3 326.6c-1.1-3.9-4.7-6.6-8.7-6.6s-7.6 2.7-8.7 6.6L288 352l-25.4 7.3c-3.9 1.1-6.6 4.7-6.6 8.7s2.7 7.6 6.6 8.7L288 384l7.3 25.4c1.1 3.9 4.7 6.6 8.7 6.6s7.6-2.7 8.7-6.6L320 384l25.4-7.3c3.9-1.1 6.6-4.7 6.6-8.7s-2.7-7.6-6.6-8.7L320 352l-7.3-25.4zM104 120l48.3 13.8c4.6 1.3 7.7 5.5 7.7 10.2s-3.1 8.9-7.7 10.2L104 168 90.2 216.3c-1.3 4.6-5.5 7.7-10.2 7.7s-8.9-3.1-10.2-7.7L56 168 7.7 154.2C3.1 152.9 0 148.7 0 144s3.1-8.9 7.7-10.2L56 120 69.8 71.7C71.1 67.1 75.3 64 80 64s8.9 3.1 10.2 7.7L104 120zM584 408l48.3 13.8c4.6 1.3 7.7 5.5 7.7 10.2s-3.1 8.9-7.7 10.2L584 456l-13.8 48.3c-1.3 4.6-5.5 7.7-10.2 7.7s-8.9-3.1-10.2-7.7L536 456l-48.3-13.8c-4.6-1.3-7.7-5.5-7.7-10.2s3.1-8.9 7.7-10.2L536 408l13.8-48.3c1.3-4.6 5.5-7.7 10.2-7.7s8.9 3.1 10.2 7.7L584 408z"/></svg>